<svg class="svg-icon" style="width: 1.001953125em; height: 1em;vertical-align: middle;fill: currentColor;overflow: hidden;" viewBox="0 0 1026 1024" version="1.1" xmlns="http://www.w3.org/2000/svg"><path d="M1003.823502 490.562471C1003.652515 490.541098 1003.524275 490.541098 1003.396034 490.562471L875.647172 490.562471 875.647172 1002.626592C875.647172 1014.424713 866.071885 1024 854.273763 1024 842.454268 1024 832.900355 1014.424713 832.900355 1002.626592L832.900355 490.562471 191.698101 490.562471 191.698101 1002.626592C191.698101 1014.424713 182.122814 1024 170.324692 1024 158.505197 1024 148.951284 1014.424713 148.951284 1002.626592L148.951284 490.562471 21.907744 490.562471C13.123273 490.562471 5.257858 485.154999 2.094594 476.926237-1.06867 468.718848 1.111417 459.378668 7.608933 453.458234L498.342392 5.450219C506.442914-1.966354 518.860864-1.966354 526.961386 5.450219L810.287289 264.111209 810.287289 106.546441C810.287289 94.769693 819.798455 85.21578 831.532457 85.21578 843.287831 85.21578 852.798998 94.769693 852.798998 106.546441L852.798998 302.925318 1015.34377 451.320893C1021.200083 455.103987 1025.06867 461.70837 1025.06867 469.23181 1025.06867 481.029931 1015.557504 490.562471 1003.823502 490.562471ZM831.575204 341.226466C831.55383 341.226466 831.55383 341.226466 831.532457 341.226466 820.610645 341.226466 811.933041 332.84809 810.73613 322.204133L512.641202 50.056523 76.88015 447.901148 165.451555 447.901148C167.054561 447.516427 168.593446 446.917971 170.324692 446.917971 172.034565 446.917971 173.57345 447.516427 175.176456 447.901148L849.400626 447.901148C851.003632 447.516427 852.542517 446.917971 854.273763 446.917971 855.983636 446.917971 857.522521 447.516427 859.125527 447.901148L948.423628 447.901148 831.575204 341.226466ZM512.641202 362.557128C460.340472 362.557128 417.786015 324.298727 417.786015 277.234481 417.786015 230.170236 460.340472 191.890461 512.641202 191.890461 564.963306 191.890461 607.517762 230.170236 607.517762 277.234481 607.517762 324.298727 564.963306 362.557128 512.641202 362.557128ZM512.641202 234.551785C483.787101 234.551785 460.297725 253.702359 460.297725 277.234481 460.297725 300.745231 483.787101 319.895805 512.641202 319.895805 541.516677 319.895805 565.006053 300.745231 565.006053 277.234481 565.006053 253.702359 541.516677 234.551785 512.641202 234.551785ZM298.565143 917.132958 384.058777 917.132958 384.058777 617.905239C384.058777 617.905239 384.058777 617.905239 384.058777 617.905239 384.058777 606.107118 393.61269 596.531831 405.432185 596.531831L619.16627 596.531831C630.964392 596.531831 640.539679 606.107118 640.539679 617.905239 640.539679 617.905239 640.539679 617.905239 640.539679 617.905239L640.539679 617.905239 640.539679 917.132958 726.033312 917.132958C737.831434 917.132958 747.406721 926.708245 747.406721 938.506366 747.406721 950.304488 737.831434 959.879775 726.033312 959.879775L298.565143 959.879775C286.745648 959.879775 277.191735 950.304488 277.191735 938.506366 277.191735 926.708245 286.745648 917.132958 298.565143 917.132958ZM597.792862 917.132958 597.792862 639.278647 426.805594 639.278647 426.805594 917.132958 597.792862 917.132958Z"  /></svg>